<?xml version="1.0" ?><!DOCTYPE svg  PUBLIC '-//W3C//DTD SVG 1.1//EN'  'http://www.w3.org/Graphics/SVG/1.1/DTD/svg11.dtd'><svg height="135px" id="Layer_1" style="enable-background:new 0 0 135 135;" version="1.1" viewBox="0 0 135 135" width="135px" xml:space="preserve" xmlns="http://www.w3.org/2000/svg" xmlns:xlink="http://www.w3.org/1999/xlink"><style type="text/css">
<![CDATA[
	.st0{fill:#465652;}
	.st1{fill:#AAB9BA;}
	.st2{fill:#47C67B;}
	.st3{fill:#AAC8D1;}
	.st4{fill:none;stroke:#E83834;stroke-width:6;stroke-linecap:round;stroke-linejoin:round;stroke-miterlimit:10;}
	.st5{fill:#7BC67B;}
	.st6{fill:#7BC7FF;}
	.st7{fill:#7C34C1;}
	.st8{fill:#7C8D96;}
	.st9{fill:#AD2707;}
	.st10{fill:#ADB8BC;}
	.st11{fill:#107510;}
	.st12{fill:#7FE5D8;}
	.st13{fill:#AF4AD1;}
	.st14{fill:#E02B7E;}
	.st15{fill:#E04038;}
	.st16{fill:#AFD7DD;}
	.st17{fill:#E0A010;}
	.st18{fill:#E0D5A4;}
	.st19{fill:#12B2B2;}
	.st20{fill:#12D66B;}
	.st21{fill:#E1A9FF;}
	.st22{fill:#1362A8;}
	.st23{fill:#E2378D;}
	.st24{fill:#E29C37;}
	.st25{fill:#E2B90E;}
	.st26{fill:#E2BF91;}
	.st27{fill:#E2CBAA;}
	.st28{fill:#14A594;}
	.st29{fill:#E4E9ED;}
	.st30{fill:#4A5D60;}
	.st31{fill:#E5B076;}
	.st32{fill:#E5B1C4;}
	.st33{fill:#E5E4C3;}
	.st34{fill:#4B6466;}
	.st35{fill:#E6FF2E;}
	.st36{fill:#18AA67;}
	.st37{fill:#E86207;}
	.st38{fill:#E8A113;}
	.st39{fill:#E8B5A6;}
	.st40{fill:#E8E8ED;}
	.st41{fill:#4E5154;}
	.st42{fill:#E9F1F4;}
	.st43{fill:#4F4B48;}
	.st44{fill:#4F74E8;}
	.st45{fill:#808E93;}
	.st46{fill:#80949B;}
	.st47{fill:#80EDAC;}
	.st48{fill:#B122E0;}
	.st49{fill:#B2C4CC;}
	.st50{fill:#83D839;}
	.st51{fill:#B3C6C6;}
	.st52{fill:none;stroke:#33363A;stroke-width:3;stroke-linecap:round;stroke-linejoin:round;stroke-miterlimit:10;}
	.st53{fill:#1A8E1C;}
	.st54{fill:#1A93D6;}
	.st55{fill:#B50B0B;}
	.st56{fill:#1AD88F;}
	.st57{fill:#B5DAF4;}
	.st58{fill:#EA7B1F;}
	.st59{fill:#EA81BD;}
	.st60{fill:#87B8D6;}
	.st61{fill:#87C3F4;}
	.st62{fill:#EAC79D;}
	.st63{fill:#EADF11;}
	.st64{fill:#EAE4C5;}
	.st65{fill:#B78094;}
	.st66{fill:#8844D8;}
	.st67{fill:#EBF4F7;}
	.st68{fill:#893015;}
	.st69{fill:#89410B;}
	.st70{fill:#899BA3;}
	.st71{fill:#EDE3B9;}
	.st72{enable-background:new    ;}
	.st73{fill:#50FF9F;}
	.st74{fill:#EEDCF4;}
	.st75{fill:#EFA37D;}
	.st76{fill:#EFA3CC;}
	.st77{fill:#EFC99A;}
	.st78{fill:#54AF79;}
	.st79{fill:#BA503A;}
	.st80{fill:#BA8663;}
	.st81{fill:#8B4FE0;}
	.st82{fill:#58ED9B;}
	.st83{fill:#BC7DFF;}
	.st84{fill:#8D9AA3;}
	.st85{fill:#BCCAD3;}
	.st86{fill:#8DE4FF;}
	.st87{fill:#20B518;}
	.st88{fill:#BF44F2;}
	.st89{fill:#21CEA1;}
	.st90{fill:#BFDAE0;}
	.st91{fill:#F0FBFC;}
	.st92{fill:#F2D9A7;}
	.st93{fill:#F2EAC9;}
	.st94{fill:#24D1AF;}
	.st95{fill:#25931C;}
	.st96{fill:#F4C4B3;}
	.st97{fill:#F4D3A2;}
	.st98{fill:#F4D647;}
	.st99{fill:#F4D7B8;}
	.st100{fill:#F4EC8E;}
	.st101{fill:#5B524D;}
	.st102{fill:#F77819;}
	.st103{fill:#F79AE1;}
	.st104{fill:#5E707A;}
	.st105{fill:#F93585;}
	.st106{fill:#F95D5D;}
	.st107{fill:#F9C19B;}
	.st108{fill:#F9CB58;}
	.st109{fill:#F9D2B2;}
	.st110{fill:#F9F07D;}
	.st111{fill:#F9F1D2;}
	.st112{fill:#F9F4B7;}
	.st113{fill:#F9F9E4;}
	.st114{fill:#5F1DAA;}
	.st115{fill:#5F9AD6;}
	.st116{fill:#C0C0C4;}
	.st117{fill:#91EA57;}
	.st118{fill:#C12727;}
	.st119{fill:#C191A0;}
	.st120{fill:#923BB7;}
	.st121{fill:#93A0A3;}
	.st122{fill:#93F9EA;}
	.st123{fill:#93FF5A;}
	.st124{fill:#C4833D;}
	.st125{fill:#95A2A5;}
	.st126{fill:#965514;}
	.st127{fill:#96562C;}
	.st128{fill:#2AF42F;}
	.st129{fill:#C5D7DD;}
	.st130{fill:#C68510;}
	.st131{fill:#C6A86D;}
	.st132{fill:#C6BB8D;}
	.st133{fill:#2C9DCE;}
	.st134{fill:#FBFCF2;}
	.st135{fill:#FC70B0;}
	.st136{fill:#FCE6C8;}
	.st137{fill:#FCF7E3;}
	.st138{fill:#C90D6B;}
	.st139{fill:#FDFEFF;}
	.st140{fill:#FDFFDC;}
	.st141{fill:#FF1A1A;}
	.st142{fill:#FF5252;}
	.st143{fill:#FF5B00;}
	.st144{fill:#FF6155;}
	.st145{fill:#FF630D;}
	.st146{fill:#FF6666;}
	.st147{fill:#FF7676;}
	.st148{fill:#FF7900;}
	.st149{fill:#FF860D;}
	.st150{fill:#FF8B00;}
	.st151{fill:#FF8F8F;}
	.st152{fill:#FF900B;}
	.st153{fill:#FF908A;}
	.st154{fill:#FF960B;}
	.st155{fill:#FF9C0D;}
	.st156{fill:#FFA9D4;}
	.st157{fill:#FFAA00;}
	.st158{fill:#FFAD40;}
	.st159{fill:#FFAF10;}
	.st160{fill:#FFB000;}
	.st161{fill:#FFBE08;}
	.st162{fill:#FFBF31;}
	.st163{fill:#FFC200;}
	.st164{fill:#FFCAE8;}
	.st165{fill:#FFCCF5;}
	.st166{fill:#FFD00B;}
	.st167{fill:#FFD039;}
	.st168{fill:#FFD400;}
	.st169{fill:#FFD833;}
	.st170{fill:#FFDB80;}
	.st171{fill:#FFDDD2;}
	.st172{fill:#FFE6D4;}
	.st173{fill:#FFE6EB;}
	.st174{fill:#FFE98D;}
	.st175{fill:#FFECD2;}
	.st176{fill:#FFF1D9;}
	.st177{fill:#FFF24D;}
	.st178{fill:#FFF3C2;}
	.st179{fill:#FFF4C7;}
	.st180{fill:#FFF800;}
	.st181{fill:#FFF80D;}
	.st182{fill:#FFF9DE;}
	.st183{fill:#FFFBD7;}
	.st184{fill:#FFFBEB;}
	.st185{fill:#FFFCC0;}
	.st186{fill:#FFFCDC;}
	.st187{fill:#FFFFFA;}
	.st188{fill:#FFFFFF;}
	.st189{fill:#63797F;}
	.st190{fill:#65E529;}
	.st191{fill:#66310E;}
	.st192{fill:#663C17;}
	.st193{fill:#9A5AE5;}
	.st194{fill:#CA30EF;}
	.st195{fill:#6892FC;}
	.st196{fill:#9CFFC4;}
	.st197{fill:#CC4306;}
	.st198{fill:#CC549E;}
	.st199{fill:#9E3256;}
	.st200{fill:#CDFFBB;}
	.st201{fill:#CE86AF;}
	.st202{fill:#CED9DD;}
	
		.st203{fill:none;stroke:#33363A;stroke-width:3;stroke-linecap:round;stroke-linejoin:round;stroke-miterlimit:10;stroke-dasharray:6;}
	.st204{fill:#CFE1E2;}
	.st205{fill:#33363A;}
	.st206{fill:#34C166;}
	.st207{fill:#364B5B;}
	.st208{fill:#3662CE;}
	.st209{fill:#36C6FF;}
	.st210{fill:#6ADB9A;}
	.st211{fill:#6D5C4D;}
	.st212{fill:#6EBDF9;}
	.st213{fill:#0031FF;}
	.st214{fill:#0062FF;}
	.st215{fill:#0068FF;}
	.st216{fill:#0086FF;}
	.st217{fill:#009BE8;}
	.st218{fill:#00AAFF;}
	.st219{fill:#D271FF;}
	.st220{fill:#D363A9;}
	.st221{fill:#D3964C;}
	.st222{fill:#D3DFE2;}
	.st223{fill:#D3E0E2;}
	.st224{fill:#D3EFF4;}
	.st225{fill:#063B66;}
	.st226{fill:#D60909;}
	.st227{fill:#D61D1D;}
	.st228{fill:#D7F0FF;}
	.st229{fill:#09B285;}
	.st230{fill:#D8D593;}
	.st231{fill:#D8E2EA;}
	.st232{fill:#D8E5EA;}
	.st233{fill:#3E5054;}
	.st234{fill:#D988FF;}
	.st235{fill:#D9E7E8;}
	.st236{fill:#702252;}
	.st237{fill:#70D3E0;}
	.st238{fill:#A02FF2;}
	.st239{fill:#A2F255;}
	.st240{fill:#A35616;}
	.st241{fill:#A3CCCC;}
	.st242{fill:#0A6ADD;}
	.st243{fill:#A5145D;}
	.st244{fill:#A57555;}
	.st245{fill:#77D6FC;}
	.st246{fill:#7815CE;}
	.st247{fill:#A7BBC1;}
	.st248{fill:#DBD279;}
	.st249{fill:#0D5C9E;}
	.st250{fill:#A83C11;}
	.st251{fill:#A8633D;}
	.st252{fill:#A8A3E5;}
	.st253{fill:#DCE6EA;}
	.st254{fill:#DCE7EA;}
	.st255{fill:#A962E8;}
	.st256{fill:#DD2466;}
	.st257{fill:#DDC38A;}
	.st258{fill:#DDD2B1;}
	.st259{fill:#DFE7E8;}
	.st260{fill:#42B1E8;}
	.st261{fill:#436377;}
	.st262{fill:#43B530;}
]]>
</style><g><g><g><g><path class="st166" d="M129.458,78.675c0,6.702-5.434,12.137-12.136,12.137H17.678c-6.702,0-12.135-5.435-12.135-12.137V49.597      c0-6.703,5.434-12.136,12.135-12.136h99.644c6.702,0,12.136,5.433,12.136,12.136V78.675z"/></g><g><path class="st155" d="M117.322,37.461H17.678c-6.702,0-12.135,5.433-12.135,12.136v23.828c0,6.702,5.434,12.137,12.135,12.137      h99.644c6.702,0,12.136-5.435,12.136-12.137V49.597C129.458,42.894,124.024,37.461,117.322,37.461z"/></g><g><path class="st205" d="M117.322,92.312H17.678c-7.519,0-13.635-6.117-13.635-13.637V49.597c0-7.519,6.117-13.636,13.635-13.636      h99.644c7.519,0,13.636,6.117,13.636,13.636v29.078C130.958,86.195,124.84,92.312,117.322,92.312z M17.678,38.961      c-5.864,0-10.635,4.771-10.635,10.636v29.078c0,5.865,4.771,10.637,10.635,10.637h99.644c5.865,0,10.636-4.771,10.636-10.637      V49.597c0-5.865-4.771-10.636-10.636-10.636H17.678z"/></g></g><g><g><g><g><path class="st205" d="M28.051,72.443h-9.445c-0.829,0-1.5-0.671-1.5-1.5V57.171c0-0.829,0.671-1.5,1.5-1.5h9.445        c0.829,0,1.5,0.671,1.5,1.5s-0.671,1.5-1.5,1.5h-7.945v10.771h7.945c0.829,0,1.5,0.671,1.5,1.5S28.88,72.443,28.051,72.443z"/></g><g><path class="st205" d="M28.051,65.556h-4.723c-0.829,0-1.5-0.671-1.5-1.5s0.671-1.5,1.5-1.5h4.723c0.829,0,1.5,0.671,1.5,1.5        S28.88,65.556,28.051,65.556z"/></g></g><g><g><path class="st205" d="M43.4,72.443h-9.445c-0.829,0-1.5-0.671-1.5-1.5V57.171c0-0.829,0.671-1.5,1.5-1.5H43.4        c0.829,0,1.5,0.671,1.5,1.5v13.771C44.9,71.771,44.229,72.443,43.4,72.443z M35.455,69.443H41.9V58.671h-6.445V69.443z"/></g></g><g><g><path class="st52" d="M58.749,70.943"/></g><g><path class="st205" d="M58.749,58.671h-9.444c-0.829,0-1.5-0.671-1.5-1.5s0.671-1.5,1.5-1.5h9.444c0.829,0,1.5,0.671,1.5,1.5        S59.577,58.671,58.749,58.671z"/></g><g><path class="st52" d="M49.304,70.943"/></g><g><path class="st52" d="M49.304,64.056"/></g><g><path class="st52" d="M58.749,64.056"/></g></g><g><g><path class="st205" d="M74.097,72.443h-9.444c-0.829,0-1.5-0.671-1.5-1.5V57.171c0-0.829,0.671-1.5,1.5-1.5h9.444        c0.829,0,1.5,0.671,1.5,1.5s-0.671,1.5-1.5,1.5h-7.944v10.771h7.944c0.829,0,1.5,0.671,1.5,1.5S74.926,72.443,74.097,72.443z"/></g><g><path class="st52" d="M64.653,64.056"/></g><g><path class="st52" d="M74.097,64.056"/></g></g><g><g><path class="st205" d="M80.001,72.443c-0.829,0-1.5-0.671-1.5-1.5V57.171c0-0.829,0.671-1.5,1.5-1.5s1.5,0.671,1.5,1.5v13.771        C81.501,71.771,80.83,72.443,80.001,72.443z"/></g><g><path class="st205" d="M89.446,72.443c-0.829,0-1.5-0.671-1.5-1.5V57.171c0-0.829,0.671-1.5,1.5-1.5s1.5,0.671,1.5,1.5v13.771        C90.946,71.771,90.274,72.443,89.446,72.443z"/></g><g><path class="st205" d="M89.446,65.556h-9.444c-0.829,0-1.5-0.671-1.5-1.5s0.671-1.5,1.5-1.5h9.444c0.829,0,1.5,0.671,1.5,1.5        S90.274,65.556,89.446,65.556z"/></g></g><g><g><path class="st205" d="M104.795,72.443c-0.829,0-1.5-0.671-1.5-1.5V58.671H96.85v12.271c0,0.829-0.671,1.5-1.5,1.5        s-1.5-0.671-1.5-1.5V57.171c0-0.829,0.671-1.5,1.5-1.5h9.445c0.829,0,1.5,0.671,1.5,1.5v13.771        C106.295,71.771,105.624,72.443,104.795,72.443z"/></g><g><path class="st205" d="M104.795,65.556H95.35c-0.829,0-1.5-0.671-1.5-1.5s0.671-1.5,1.5-1.5h9.445c0.829,0,1.5,0.671,1.5,1.5        S105.624,65.556,104.795,65.556z"/></g></g><g><g><path class="st205" d="M110.699,68.068c-0.829,0-1.5-0.671-1.5-1.5v-9.396c0-0.829,0.671-1.5,1.5-1.5s1.5,0.671,1.5,1.5v9.396        C112.199,67.396,111.527,68.068,110.699,68.068z"/></g><g><path class="st205" d="M116.394,68.068c-0.829,0-1.5-0.671-1.5-1.5v-9.396c0-0.829,0.671-1.5,1.5-1.5s1.5,0.671,1.5,1.5v9.396        C117.894,67.396,117.223,68.068,116.394,68.068z"/></g></g><g><g><path class="st205" d="M110.699,72.603c-0.829,0-1.5-0.671-1.5-1.5v-0.16c0-0.829,0.671-1.5,1.5-1.5s1.5,0.671,1.5,1.5v0.16        C112.199,71.932,111.527,72.603,110.699,72.603z"/></g><g><path class="st205" d="M116.394,72.603c-0.829,0-1.5-0.671-1.5-1.5v-0.16c0-0.829,0.671-1.5,1.5-1.5s1.5,0.671,1.5,1.5v0.16        C117.894,71.932,117.223,72.603,116.394,72.603z"/></g></g></g><g><path class="st205" d="M28.051,72.443c-0.829,0-1.5-0.671-1.5-1.5v-6.887c0-0.829,0.671-1.5,1.5-1.5s1.5,0.671,1.5,1.5v6.887      C29.551,71.771,28.88,72.443,28.051,72.443z"/></g><g><path class="st205" d="M54.026,72.443c-0.829,0-1.5-0.671-1.5-1.5V57.171c0-0.829,0.671-1.5,1.5-1.5s1.5,0.671,1.5,1.5v13.771      C55.526,71.771,54.855,72.443,54.026,72.443z"/></g></g><g><polyline class="st166" points="80.758,86.964 67.5,100.222 54.242,86.964    "/></g><g><path class="st205" d="M67.5,101.722c-0.384,0-0.768-0.146-1.061-0.439L53.181,88.025c-0.586-0.585-0.586-1.535,0-2.121     s1.535-0.586,2.121,0L67.5,98.101l12.198-12.197c0.586-0.586,1.535-0.586,2.121,0s0.586,1.536,0,2.121l-13.258,13.258     C68.268,101.576,67.884,101.722,67.5,101.722z"/></g></g><g><g><g><g><path class="st205" d="M67.503,15.828c-0.829,0-1.5-0.671-1.5-1.5v-0.992c0-0.829,0.671-1.5,1.5-1.5s1.5,0.671,1.5,1.5v0.992       C69.003,15.156,68.332,15.828,67.503,15.828z"/></g><g><path class="st205" d="M67.501,30.693C67.501,30.693,67.501,30.693,67.501,30.693c-0.829,0-1.5-0.672-1.5-1.5l0.001-5.824       c0-0.828,0.672-1.5,1.5-1.5c0,0,0,0,0,0c0.828,0,1.5,0.672,1.5,1.5l-0.001,5.824C69.001,30.021,68.33,30.693,67.501,30.693z"/></g></g><g><g><g><path class="st205" d="M40.142,21.162c-0.381,0-0.763-0.145-1.055-0.434l-0.708-0.701c-0.589-0.583-0.594-1.532-0.011-2.121        c0.582-0.589,1.532-0.594,2.121-0.011l0.708,0.701c0.589,0.583,0.594,1.532,0.011,2.121        C40.915,21.013,40.528,21.162,40.142,21.162z"/></g><g><path class="st205" d="M50.654,31.677c-0.384,0-0.768-0.146-1.061-0.44l-4.123-4.127c-0.585-0.586-0.585-1.536,0.001-2.121        c0.586-0.585,1.536-0.585,2.121,0.001l4.123,4.127c0.585,0.586,0.585,1.536-0.001,2.121        C51.421,31.531,51.038,31.677,50.654,31.677z"/></g></g><g><g><path class="st205" d="M94.861,21.166c-0.384,0-0.768-0.146-1.061-0.44c-0.585-0.586-0.585-1.536,0.001-2.121l0.706-0.705        c0.585-0.585,1.536-0.586,2.121,0.001c0.585,0.586,0.585,1.536-0.001,2.121l-0.706,0.705        C95.628,21.019,95.245,21.166,94.861,21.166z"/></g><g><path class="st205" d="M84.352,31.678c-0.383,0-0.767-0.146-1.06-0.438c-0.586-0.585-0.587-1.535-0.001-2.122l4.12-4.126        c0.585-0.585,1.535-0.588,2.122-0.001c0.586,0.585,0.587,1.535,0.001,2.122l-4.12,4.126        C85.12,31.531,84.736,31.678,84.352,31.678z"/></g></g></g></g><g><g><g><path class="st205" d="M67.497,123.165c-0.829,0-1.5-0.671-1.5-1.5v-0.992c0-0.829,0.671-1.5,1.5-1.5s1.5,0.671,1.5,1.5v0.992       C68.997,122.493,68.326,123.165,67.497,123.165z"/></g><g><path class="st205" d="M67.497,113.131C67.497,113.131,67.497,113.131,67.497,113.131c-0.829,0-1.5-0.672-1.5-1.5l0.001-5.824       c0-0.828,0.672-1.5,1.5-1.5c0,0,0,0,0,0c0.828,0,1.5,0.672,1.5,1.5l-0.001,5.824C68.997,112.46,68.325,113.131,67.497,113.131z       "/></g></g><g><g><g><path class="st205" d="M95.566,117.54c-0.381,0-0.763-0.145-1.055-0.434l-0.708-0.701c-0.589-0.583-0.594-1.532-0.011-2.121        c0.582-0.589,1.532-0.593,2.121-0.011l0.708,0.701c0.589,0.583,0.594,1.532,0.011,2.121        C96.339,117.391,95.953,117.54,95.566,117.54z"/></g><g><path class="st205" d="M88.468,110.45c-0.384,0-0.768-0.146-1.061-0.44l-4.123-4.127c-0.585-0.586-0.585-1.536,0.001-2.121        s1.535-0.585,2.121,0.001l4.123,4.127c0.585,0.586,0.585,1.536-0.001,2.121C89.235,110.303,88.852,110.45,88.468,110.45z"/></g></g><g><g><path class="st205" d="M39.434,117.54c-0.384,0-0.768-0.146-1.061-0.44c-0.585-0.586-0.585-1.536,0.001-2.121l0.706-0.705        c0.585-0.585,1.536-0.585,2.121,0.001c0.585,0.586,0.585,1.536-0.001,2.121l-0.706,0.705        C40.201,117.393,39.817,117.54,39.434,117.54z"/></g><g><path class="st205" d="M46.529,110.448c-0.383,0-0.767-0.146-1.06-0.438c-0.586-0.585-0.587-1.535-0.001-2.122l4.12-4.126        c0.584-0.586,1.534-0.587,2.122-0.001c0.586,0.585,0.587,1.535,0.001,2.122l-4.12,4.126        C47.297,110.301,46.913,110.448,46.529,110.448z"/></g></g></g></g></g></g></svg>