<?xml version="1.0" standalone="no"?>
<?xml-stylesheet href="/css/light.css" type="text/css"?>
<!DOCTYPE svg PUBLIC "-//W3C//DTD SVG 1.1//EN" "http://www.w3.org/Graphics/SVG/1.1/DTD/svg11.dtd">
<svg xmlns="http://www.w3.org/2000/svg" version="1.1" preserveAspectRatio="xMinYMin meet" viewBox="0 0 1000 700">
  <defs>
    <filter id="white-glow" x="-150%" y="-150%" width="300%" height="300%">
      <feFlood result="flood" flood-color="#ffffff" flood-opacity="0.15"></feFlood>
      <feComposite in="flood" result="mask" in2="SourceGraphic" operator="in"></feComposite>
      <feMorphology in="mask" result="dilated" operator="dilate" radius="5"></feMorphology>
      <feGaussianBlur in="dilated" result="blurred" stdDeviation="5"></feGaussianBlur>
      <feMerge>
        <feMergeNode in="blurred"></feMergeNode>
        <feMergeNode in="SourceGraphic"></feMergeNode>
      </feMerge>
    </filter>

    <filter id="black-glow" x="-1000%" y="-1000%" width="2000%" height="2000%">
      <feFlood result="flood" flood-color="#000000" flood-opacity="0.15"></feFlood>
      <feComposite in="flood" result="mask" in2="SourceGraphic" operator="in"></feComposite>
      <feMorphology in="mask" result="dilated" operator="dilate" radius="4"></feMorphology>
      <feGaussianBlur in="dilated" result="blurred" stdDeviation="5"></feGaussianBlur>
      <feMerge>
        <feMergeNode in="blurred"></feMergeNode>
        <feMergeNode in="SourceGraphic"></feMergeNode>
      </feMerge>
    </filter>

    <marker id="transitionEndCircle" viewBox="0 -5 10 10" refX="31" refY="0" markerWidth="7" markerHeight="7" orient="auto" class="marker">
      <path d="M0,-4L10,0L0,4"></path>
    </marker>
    <marker id="transitionEndRect" viewBox="0 -5 10 10" refX="10" refY="0" markerWidth="7" markerHeight="7" orient="auto" class="marker">
      <path d="M0,-4L10,0L0,4"></path>
    </marker>
  </defs>

<g transform="translate(787.5045633539696,341.49170952421423) scale(0.8190298319737275)"><g><line class="transition" marker-end="url(#transitionEndCircle)" x1="40" y1="250" x2="-242.05610464018176" y2="208.40055926946118"></line><line class="transition" marker-end="url(#transitionEndCircle)" x1="-242.05610464018176" y1="208.40055926946118" x2="-441.23104339753763" y2="83.4882231952821"></line><line class="transition" marker-end="url(#transitionEndCircle)" x1="-441.23104339753763" y1="83.4882231952821" x2="-245.79321159550804" y2="20.634098896523064"></line><line class="transition" marker-end="url(#transitionEndCircle)" x1="-441.23104339753763" y1="83.4882231952821" x2="-722.7705476891947" y2="-2.8975312927723516"></line><line class="transition" marker-end="url(#transitionEndCircle)" x1="-245.79321159550804" y1="20.634098896523064" x2="-53.491468086101214" y2="34.87964986029618"></line><line class="transition" marker-end="url(#transitionEndCircle)" x1="-722.7705476891947" y1="-2.8975312927723516" x2="-844.6064335498997" y2="-183.76355114494748"></line><line class="transition" marker-end="url(#transitionEndCircle)" x1="-722.7705476891947" y1="-2.8975312927723516" x2="-627.8117700548022" y2="108.85048772837392"></line><line class="transition" marker-end="url(#transitionEndCircle)" x1="-722.7705476891947" y1="-2.8975312927723516" x2="-556.4811607596882" y2="-62.68758574965408"></line><line class="transition" marker-end="url(#transitionEndCircle)" x1="-53.491468086101214" y1="34.87964986029618" x2="90.09447115099555" y2="-90.31865263591584"></line><line class="transition" marker-end="url(#transitionEndCircle)" x1="-844.6064335498997" y1="-183.76355114494748" x2="-693.0156441560079" y2="-358.5310465001755"></line><line class="transition" marker-end="url(#transitionEndCircle)" x1="-627.8117700548022" y1="108.85048772837392" x2="-662.8528094750421" y2="-169.46603440787902"></line><line class="transition" marker-end="url(#transitionEndCircle)" x1="-556.4811607596882" y1="-62.68758574965408" x2="-510.549361939597" y2="-271.1593915945338"></line><line class="transition" marker-end="url(#transitionEndCircle)" x1="90.09447115099555" y1="-90.31865263591584" x2="60" y2="-280"></line><line class="transition" marker-end="url(#transitionEndCircle)" x1="-693.0156441560079" y1="-358.5310465001755" x2="-510.549361939597" y2="-271.1593915945338"></line><line class="transition" marker-end="url(#transitionEndCircle)" x1="-662.8528094750421" y1="-169.46603440787902" x2="-510.549361939597" y2="-271.1593915945338"></line><line class="transition" marker-end="url(#transitionEndCircle)" x1="-510.549361939597" y1="-271.1593915945338" x2="-400" y2="-120"></line><line class="transition" marker-end="url(#transitionEndCircle)" x1="-400" y1="-120" x2="-441.23104339753763" y2="83.4882231952821"></line></g><g><circle r="30" class="state START" transform="translate(40,250)"><title>Rule start
The entry node of a rule.</title></circle><circle r="30" class="state STOP" transform="translate(60,-280)"><title>Rule stop
The exit state of a rule.</title></circle><circle r="30" class="state BASIC" transform="translate(-242.05610464018176,208.40055926946118)"><title>Basic state</title></circle><circle r="30" class="state BASIC" transform="translate(-844.6064335498997,-183.76355114494748)"><title>Basic state</title></circle><circle r="30" class="state BASIC" transform="translate(-693.0156441560079,-358.5310465001755)"><title>Basic state</title></circle><circle r="30" class="state BASIC" transform="translate(-627.8117700548022,108.85048772837392)"><title>Basic state</title></circle><circle r="30" class="state BASIC" transform="translate(-662.8528094750421,-169.46603440787902)"><title>Basic state</title></circle><circle r="30" class="state BASIC" transform="translate(-556.4811607596882,-62.68758574965408)"><title>Basic state</title></circle><circle r="30" class="state SBSTART" transform="translate(-722.7705476891947,-2.8975312927723516)"><title>Star block start
Start of the actual block in a (A|b|...)* loop.</title></circle><circle r="30" class="state BEND" transform="translate(-510.549361939597,-271.1593915945338)"><title>Block end
Terminal node of a simple (A|b|...) block.</title></circle><circle r="30" class="state SLENTRY" transform="translate(-441.23104339753763,83.4882231952821)"><title>Star loop entry
Entry + exit state for (A|B|...)* loops.</title></circle><circle r="30" class="state LEND" transform="translate(-245.79321159550804,20.634098896523064)"><title>Loop end
Marks the end of a * or + loop.</title></circle><circle r="30" class="state SLBACK" transform="translate(-400,-120)"><title>Star loop back
The loop back state from the inner block to the star loop entry state.</title></circle><circle r="30" class="state BASIC" transform="translate(-53.491468086101214,34.87964986029618)"><title>Basic state</title></circle><circle r="30" class="state BASIC" transform="translate(90.09447115099555,-90.31865263591584)"><title>Basic state</title></circle></g><g><text x="0" y="0" class="stateLabel" transform="translate(40,250)">70</text><text x="0" y="0" class="stateLabel" transform="translate(60,-280)">71</text><text x="0" y="0" class="stateLabel" transform="translate(-242.05610464018176,208.40055926946118)">414</text><text x="0" y="0" class="stateLabel" transform="translate(-844.6064335498997,-183.76355114494748)">415</text><text x="0" y="0" class="stateLabel" transform="translate(-693.0156441560079,-358.5310465001755)">416</text><text x="0" y="0" class="stateLabel" transform="translate(-627.8117700548022,108.85048772837392)">417</text><text x="0" y="0" class="stateLabel" transform="translate(-662.8528094750421,-169.46603440787902)">418</text><text x="0" y="0" class="stateLabel" transform="translate(-556.4811607596882,-62.68758574965408)">419</text><text x="0" y="0" class="stateLabel" transform="translate(-722.7705476891947,-2.8975312927723516)">420</text><text x="0" y="0" class="stateLabel" transform="translate(-510.549361939597,-271.1593915945338)">421</text><text x="0" y="0" class="stateLabel" transform="translate(-441.23104339753763,83.4882231952821)">422</text><text x="0" y="0" class="stateLabel" transform="translate(-245.79321159550804,20.634098896523064)">423</text><text x="0" y="0" class="stateLabel" transform="translate(-400,-120)">424</text><text x="0" y="0" class="stateLabel" transform="translate(-53.491468086101214,34.87964986029618)">425</text><text x="0" y="0" class="stateLabel" transform="translate(90.09447115099555,-90.31865263591584)">426</text></g><g><text x="0" y="13" class="stateTypeLabel" transform="translate(40,250)">START</text><text x="0" y="13" class="stateTypeLabel" transform="translate(60,-280)">STOP</text><text x="0" y="13" class="stateTypeLabel" transform="translate(-242.05610464018176,208.40055926946118)">BASIC</text><text x="0" y="13" class="stateTypeLabel" transform="translate(-844.6064335498997,-183.76355114494748)">BASIC</text><text x="0" y="13" class="stateTypeLabel" transform="translate(-693.0156441560079,-358.5310465001755)">BASIC</text><text x="0" y="13" class="stateTypeLabel" transform="translate(-627.8117700548022,108.85048772837392)">BASIC</text><text x="0" y="13" class="stateTypeLabel" transform="translate(-662.8528094750421,-169.46603440787902)">BASIC</text><text x="0" y="13" class="stateTypeLabel" transform="translate(-556.4811607596882,-62.68758574965408)">BASIC</text><text x="0" y="13" class="stateTypeLabel" transform="translate(-722.7705476891947,-2.8975312927723516)">SBSTART</text><text x="0" y="13" class="stateTypeLabel" transform="translate(-510.549361939597,-271.1593915945338)">BEND</text><text x="0" y="13" class="stateTypeLabel" transform="translate(-441.23104339753763,83.4882231952821)">SLENTRY</text><text x="0" y="13" class="stateTypeLabel" transform="translate(-245.79321159550804,20.634098896523064)">LEND</text><text x="0" y="13" class="stateTypeLabel" transform="translate(-400,-120)">SLBACK</text><text x="0" y="13" class="stateTypeLabel" transform="translate(-53.491468086101214,34.87964986029618)">BASIC</text><text x="0" y="13" class="stateTypeLabel" transform="translate(90.09447115099555,-90.31865263591584)">BASIC</text></g><g><text x="0" y="0" class="linkLabel" transform="translate(-101.02805232009088,229.20027963473058) rotate(8.389864631466935) translate(10, 0)"><tspan x="0" y="1.1em" dy="0em">ε</tspan></text><text x="0" y="0" class="linkLabel" transform="translate(-341.6435740188597,145.94439123237163) rotate(32.09383394225219) translate(10, 0)"><tspan x="0" y="1.1em" dy="0em">'"'</tspan></text><text x="0" y="0" class="linkLabel" transform="translate(-343.51212749652285,52.06116104590258) rotate(-17.828140909390132) translate(0, 0)"><tspan x="0" y="1.1em" dy="0em">ε</tspan></text><text x="0" y="0" class="linkLabel" transform="translate(-582.0007955433662,40.29534595125487) rotate(17.057768285226416) translate(10, 0)"><tspan x="0" y="1.1em" dy="0em">ε</tspan></text><text x="0" y="0" class="linkLabel" transform="translate(-149.64233984080462,27.756874378409623) rotate(4.236684414705385) translate(0, 0)"><tspan x="0" y="1.1em" dy="0em">ε</tspan></text><text x="0" y="0" class="linkLabel" transform="translate(-783.6884906195472,-93.33054121885992) rotate(56.03480388821464) translate(10, 0)"><tspan x="0" y="1.1em" dy="0em">ε</tspan></text><text x="0" y="0" class="linkLabel" transform="translate(-675.2911588719985,52.97647821780078) rotate(49.643512735129015) translate(0, 0)"><tspan x="0" y="1.1em" dy="0em">ε</tspan></text><text x="0" y="0" class="linkLabel" transform="translate(-639.6258542244415,-32.792558521213216) rotate(-19.77626331974601) translate(0, 0)"><tspan x="0" y="1.1em" dy="0em">ε</tspan></text><text x="0" y="0" class="linkLabel" transform="translate(18.301501532447165,-27.719501387809828) rotate(-41.08647044773649) translate(0, 0)"><tspan x="0" y="1.1em" dy="0em">'"'</tspan></text><text x="0" y="0" class="linkLabel" transform="translate(-768.8110388529537,-271.1472988225615) rotate(-49.06210552031733) translate(0, 0)"><tspan x="0" y="1.1em" dy="0em">'\'</tspan></text><text x="0" y="0" class="linkLabel" transform="translate(-645.3322897649222,-30.30777333975255) rotate(0) translate(10, -10)"><tspan x="0" y="1.1em" dy="0em">'"'</tspan></text><text x="0" y="0" class="linkLabel" transform="translate(-533.5152613496426,-166.92348867209395) rotate(0) translate(10, -10)"><tspan x="0" y="1.1em" dy="0em">'"'</tspan><tspan x="0" y="1.1em" dy="1em">'\'</tspan></text><text x="0" y="0" class="linkLabel" transform="translate(75.04723557549778,-185.15932631795792) rotate(0) translate(10, -10)"><tspan x="0" y="1.1em" dy="0em">ε</tspan></text><text x="0" y="0" class="linkLabel" transform="translate(-601.7825030478025,-314.84521904735465) rotate(25.586836271647474) translate(0, 0)"></text><text x="0" y="0" class="linkLabel" transform="translate(-586.7010857073196,-220.31271300120642) rotate(-33.73112633558889) translate(0, 0)"><tspan x="0" y="1.1em" dy="0em">'"'</tspan></text><text x="0" y="0" class="linkLabel" transform="translate(-455.2746809697985,-195.5796957972669) rotate(53.82039038184538) translate(0, 0)"><tspan x="0" y="1.1em" dy="0em">ε</tspan></text><text x="0" y="0" class="linkLabel" transform="translate(-420.6155216987688,-18.25588840235895) rotate(0) translate(10, -10)"><tspan x="0" y="1.1em" dy="0em">ε</tspan></text></g></g></svg>