<?xml version="1.0" standalone="no"?>
<?xml-stylesheet href="/css/light.css" type="text/css"?>
<!DOCTYPE svg PUBLIC "-//W3C//DTD SVG 1.1//EN" "http://www.w3.org/Graphics/SVG/1.1/DTD/svg11.dtd">
<svg xmlns="http://www.w3.org/2000/svg" class="railroad-diagram" width="504" height="224" viewBox="0 0 504 224"><g transform="translate(.5 .5)"><path d="M 20 21 v 20 m 10 -20 v 20 m -10 -10 h 20.5"></path><g><path d="M40 31h0"></path><path d="M464 31h0"></path><path d="M40 31h20"></path><g><path d="M60 31h0"></path><path d="M444 31h0"></path><g class="terminal"><path d="M60 31h0"></path><path d="M114 31h0"></path><rect x="60" y="20" width="54" height="22" rx="0" ry="0"></rect><text x="87" y="35">'"'</text></g><path d="M114 31h10"></path><path d="M124 31h10"></path><g><path d="M134 31h0"></path><path d="M370 31h0"></path><path d="M134 31h10"></path><g><path d="M144 31h0"></path><path d="M360 31h0"></path><path d="M144 31h20"></path><g><path d="M164 31h0"></path><path d="M340 31h0"></path><g class="terminal"><path d="M164 31h0"></path><path d="M226 31h0"></path><rect x="164" y="20" width="62" height="22" rx="0" ry="0"></rect><text x="195" y="35">'\\'</text></g><path d="M226 31h10"></path><path d="M236 31h10"></path><g class="terminal"><path d="M246 31h0"></path><path d="M340 31h0"></path><rect x="246" y="20" width="94" height="22" rx="0" ry="0"></rect><text x="293" y="35">any char</text></g></g><path d="M340 31h20"></path><path d="M144 31a10 10 0 0 1 10 10v26a10 10 0 0 0 10 10"></path><g><path d="M164 77h57"></path><path d="M283 77h57"></path><g class="terminal"><path d="M221 77h0"></path><path d="M283 77h0"></path><rect x="221" y="66" width="62" height="22" rx="0" ry="0"></rect><text x="252" y="81">'""'</text></g></g><path d="M340 77a10 10 0 0 0 10 -10v-26a10 10 0 0 1 10 -10"></path><path d="M144 31a10 10 0 0 1 10 10v72a10 10 0 0 0 10 10"></path><g><path d="M164 123h14"></path><path d="M326 123h14"></path><g><path d="M178 123h0"></path><path d="M326 123h0"></path><g><path d="M178 123h0"></path><path d="M214 123h0"></path><text x="196" y="128" class="comment">not</text></g><path d="M214 123h10"></path><g><path d="M224 123h0"></path><path d="M326 123h0"></path><path d="M224 123h20"></path><g class="terminal"><path d="M244 123h4"></path><path d="M302 123h4"></path><rect x="248" y="112" width="54" height="22" rx="0" ry="0"></rect><text x="275" y="127">'"'</text></g><path d="M306 123h20"></path><path d="M224 123a10 10 0 0 1 10 10v26a10 10 0 0 0 10 10"></path><g class="terminal"><path d="M244 169h0"></path><path d="M306 169h0"></path><rect x="244" y="158" width="62" height="22" rx="0" ry="0"></rect><text x="275" y="173">'\\'</text></g><path d="M306 169a10 10 0 0 0 10 -10v-26a10 10 0 0 1 10 -10"></path></g></g></g><path d="M340 123a10 10 0 0 0 10 -10v-72a10 10 0 0 1 10 -10"></path></g><path d="M360 31h10"></path><path d="M144 31a10 10 0 0 0 -10 10v153a10 10 0 0 0 10 10"></path><g><path d="M144 204h216"></path></g><path d="M360 204a10 10 0 0 0 10 -10v-153a10 10 0 0 0 -10 -10"></path></g><path d="M370 31h10"></path><path d="M380 31h10"></path><g class="terminal"><path d="M390 31h0"></path><path d="M444 31h0"></path><rect x="390" y="20" width="54" height="22" rx="0" ry="0"></rect><text x="417" y="35">'"'</text></g></g><path d="M444 31h20"></path></g><path d="M 464 31 h 20 m -10 -10 v 20 m 10 -20 v 20"></path></g></svg>