<?xml version="1.0" standalone="no"?>
<?xml-stylesheet href="/css/light.css" type="text/css"?>
<!DOCTYPE svg PUBLIC "-//W3C//DTD SVG 1.1//EN" "http://www.w3.org/Graphics/SVG/1.1/DTD/svg11.dtd">
<svg xmlns="http://www.w3.org/2000/svg" version="1.1" preserveAspectRatio="xMinYMin meet" viewBox="0 0 1000 1000">
  <defs>
    <filter id="white-glow" x="-150%" y="-150%" width="300%" height="300%">
      <feFlood result="flood" flood-color="#ffffff" flood-opacity="0.15"></feFlood>
      <feComposite in="flood" result="mask" in2="SourceGraphic" operator="in"></feComposite>
      <feMorphology in="mask" result="dilated" operator="dilate" radius="5"></feMorphology>
      <feGaussianBlur in="dilated" result="blurred" stdDeviation="5"></feGaussianBlur>
      <feMerge>
        <feMergeNode in="blurred"></feMergeNode>
        <feMergeNode in="SourceGraphic"></feMergeNode>
      </feMerge>
    </filter>

    <filter id="black-glow" x="-1000%" y="-1000%" width="2000%" height="2000%">
      <feFlood result="flood" flood-color="#000000" flood-opacity="0.15"></feFlood>
      <feComposite in="flood" result="mask" in2="SourceGraphic" operator="in"></feComposite>
      <feMorphology in="mask" result="dilated" operator="dilate" radius="4"></feMorphology>
      <feGaussianBlur in="dilated" result="blurred" stdDeviation="5"></feGaussianBlur>
      <feMerge>
        <feMergeNode in="blurred"></feMergeNode>
        <feMergeNode in="SourceGraphic"></feMergeNode>
      </feMerge>
    </filter>

    <marker id="transitionEndCircle" viewBox="0 -5 10 10" refX="31" refY="0" markerWidth="7" markerHeight="7" orient="auto" class="marker">
      <path d="M0,-4L10,0L0,4"></path>
    </marker>
    <marker id="transitionEndRect" viewBox="0 -5 10 10" refX="10" refY="0" markerWidth="7" markerHeight="7" orient="auto" class="marker">
      <path d="M0,-4L10,0L0,4"></path>
    </marker>
  </defs>

<g transform="translate(512.7984317318312,207.76983073510098) scale(0.5072787386011316)"><g><line class="transition" marker-end="url(#transitionEndCircle)" x1="40" y1="250" x2="160.35138908752072" y2="32.60078439471594"></line><line class="transition" marker-end="url(#transitionEndCircle)" x1="160.35138908752072" y1="32.60078439471594" x2="326.4045983707099" y2="261.8057932531647"></line><line class="transition" marker-end="url(#transitionEndCircle)" x1="160.35138908752072" y1="32.60078439471594" x2="307.6775189531979" y2="-91.58473719822095"></line><line class="transition" marker-end="url(#transitionEndCircle)" x1="160.35138908752072" y1="32.60078439471594" x2="-6.53769132970632" y2="-32.82458508509285"></line><line class="transition" marker-end="url(#transitionEndCircle)" x1="160.35138908752072" y1="32.60078439471594" x2="-103.24263898177091" y2="294.0248022290937"></line><line class="transition" marker-end="url(#transitionEndCircle)" x1="160.35138908752072" y1="32.60078439471594" x2="191.7127267117111" y2="364.0809058207215"></line><line class="transition" marker-end="url(#transitionEndCircle)" x1="160.35138908752072" y1="32.60078439471594" x2="109.95129150773316" y2="-171.17113346407706"></line><line class="transition" marker-end="url(#transitionEndCircle)" x1="160.35138908752072" y1="32.60078439471594" x2="430.5110601075255" y2="-32.11532330981555"></line><line class="transition" marker-end="url(#transitionEndCircle)" x1="326.4045983707099" y1="261.8057932531647" x2="302.89158399968886" y2="540.5239299217294"></line><line class="transition" marker-end="url(#transitionEndCircle)" x1="307.6775189531979" y1="-91.58473719822095" x2="443.71789341482366" y2="156.8583369396634"></line><line class="transition" marker-end="url(#transitionEndCircle)" x1="-6.53769132970632" y1="-32.82458508509285" x2="168.51985687165595" y2="225.02650024919024"></line><line class="transition" marker-end="url(#transitionEndCircle)" x1="-103.24263898177091" y1="294.0248022290937" x2="-180.15656898794677" y2="675.0779104969236"></line><line class="transition" marker-end="url(#transitionEndCircle)" x1="191.7127267117111" y1="364.0809058207215" x2="-119.43902392776522" y2="154.40442289038495"></line><line class="transition" marker-end="url(#transitionEndCircle)" x1="109.95129150773316" y1="-171.17113346407706" x2="-63.32152832788568" y2="-257.1799742887195"></line><line class="transition" marker-end="url(#transitionEndCircle)" x1="430.5110601075255" y1="-32.11532330981555" x2="302.8440437063836" y2="81.4113731698215"></line><line class="transition" marker-end="url(#transitionEndCircle)" x1="302.89158399968886" y1="540.5239299217294" x2="196.29575222861143" y2="681.6654894584015"></line><line class="transition" marker-end="url(#transitionEndCircle)" x1="443.71789341482366" y1="156.8583369396634" x2="191.7127267117111" y2="364.0809058207215"></line><line class="transition" marker-end="url(#transitionEndCircle)" x1="191.7127267117111" y1="364.0809058207215" x2="196.29575222861143" y2="681.6654894584015"></line><line class="transition" marker-end="url(#transitionEndCircle)" x1="168.51985687165595" y1="225.02650024919024" x2="139.17244602818508" y2="535.8869684811662"></line><line class="transition" marker-end="url(#transitionEndCircle)" x1="139.17244602818508" y1="535.8869684811662" x2="462.66310022398886" y2="588.5132396750612"></line><line class="transition" marker-end="url(#transitionEndCircle)" x1="-180.15656898794677" y1="675.0779104969236" x2="-213.25555621058896" y2="979.6531726108071"></line><line class="transition" marker-end="url(#transitionEndCircle)" x1="-119.43902392776522" y1="154.40442289038495" x2="-317.7037660837645" y2="353.69542701104257"></line><line class="transition" marker-end="url(#transitionEndCircle)" x1="-63.32152832788568" y1="-257.1799742887195" x2="-239.20086032475822" y2="-179.00927526339896"></line><line class="transition" marker-end="url(#transitionEndCircle)" x1="302.8440437063836" y1="81.4113731698215" x2="38.566564421658" y2="168.24266327900477"></line><line class="transition" marker-end="url(#transitionEndCircle)" x1="196.29575222861143" y1="681.6654894584015" x2="-4.942192408334989" y2="721.555439487997"></line><line class="transition" marker-end="url(#transitionEndCircle)" x1="462.66310022398886" y1="588.5132396750612" x2="412.0663889915564" y2="462.8097872132011"></line><line class="transition" marker-end="url(#transitionEndCircle)" x1="-213.25555621058896" y1="979.6531726108071" x2="-30.79263508562108" y2="1028.2608826622957"></line><line class="transition" marker-end="url(#transitionEndCircle)" x1="-30.79263508562108" y1="1028.2608826622957" x2="188.7383074446039" y2="1058.3345038356922"></line><line class="transition" marker-end="url(#transitionEndCircle)" x1="-317.7037660837645" y1="353.69542701104257" x2="-481.89037704755964" y2="475.7506481994022"></line><line class="transition" marker-end="url(#transitionEndCircle)" x1="-481.89037704755964" y1="475.7506481994022" x2="-168.16820558511057" y2="475.82918188984144"></line><line class="transition" marker-end="url(#transitionEndRect)" x1="-239.20086032475822" y1="-179.00927526339896" x2="-317.94450437439895" y2="-35.0202237143026"></line><line class="transition" marker-end="url(#transitionEndCircle)" x1="-331.6163153910149" y1="-10.020223714302633" x2="-279.94751583247944" y2="197.3465170313995"></line><line class="transition" marker-end="url(#transitionEndRect)" x1="38.566564421658" y1="168.24266327900477" x2="-46.846272724277654" y2="532.2080906053469"></line><line class="transition" marker-end="url(#transitionEndCircle)" x1="-52.713096241924006" y1="557.2080906053469" x2="-103.49420211740699" y2="843.5398506158467"></line><line class="transition" marker-end="url(#transitionEndCircle)" x1="-4.942192408334989" y1="721.555439487997" x2="-292.8369543664883" y2="818.7527971106884"></line><line class="transition" marker-end="url(#transitionEndCircle)" x1="-4.942192408334989" y1="721.555439487997" x2="355.0189840074171" y2="705.9786343480482"></line><line class="transition" marker-end="url(#transitionEndCircle)" x1="412.0663889915564" y1="462.8097872132011" x2="196.29575222861143" y2="681.6654894584015"></line><line class="transition" marker-end="url(#transitionEndCircle)" x1="188.7383074446039" y1="1058.3345038356922" x2="287.1674416842238" y2="887.4353027607731"></line><line class="transition" marker-end="url(#transitionEndCircle)" x1="-168.16820558511057" y1="475.82918188984144" x2="139.17244602818508" y2="535.8869684811662"></line><line class="transition" marker-end="url(#transitionEndCircle)" x1="-279.94751583247944" y1="197.3465170313995" x2="8.099249468708114" y2="435.81930687069564"></line><line class="transition" marker-end="url(#transitionEndCircle)" x1="-103.49420211740699" y1="843.5398506158467" x2="-30.79263508562108" y2="1028.2608826622957"></line><line class="transition" marker-end="url(#transitionEndCircle)" x1="-292.8369543664883" y1="818.7527971106884" x2="-426.57448095192524" y2="1002.5984966162088"></line><line class="transition" marker-end="url(#transitionEndCircle)" x1="-292.8369543664883" y1="818.7527971106884" x2="-483.0041028708229" y2="845.093788649151"></line><line class="transition" marker-end="url(#transitionEndCircle)" x1="-292.8369543664883" y1="818.7527971106884" x2="-461.0787123499511" y2="635.922543470255"></line><line class="transition" marker-end="url(#transitionEndCircle)" x1="355.0189840074171" y1="705.9786343480482" x2="640" y2="380"></line><line class="transition" marker-end="url(#transitionEndCircle)" x1="287.1674416842238" y1="887.4353027607731" x2="196.29575222861143" y2="681.6654894584015"></line><line class="transition" marker-end="url(#transitionEndCircle)" x1="139.17244602818508" y1="535.8869684811662" x2="196.29575222861143" y2="681.6654894584015"></line><line class="transition" marker-end="url(#transitionEndCircle)" x1="8.099249468708114" y1="435.81930687069564" x2="196.29575222861143" y2="681.6654894584015"></line><line class="transition" marker-end="url(#transitionEndRect)" x1="-30.79263508562108" y1="1028.2608826622957" x2="-108.96904975522114" y2="1161.157106588265"></line><line class="transition" marker-end="url(#transitionEndCircle)" x1="-123.67533943752785" y1="1186.157106588265" x2="60.83428909440306" y2="1179.41521829495"></line><line class="transition" marker-end="url(#transitionEndCircle)" x1="-426.57448095192524" y1="1002.5984966162088" x2="-664.6171623295661" y2="916.3871142507683"></line><line class="transition" marker-end="url(#transitionEndCircle)" x1="-483.0041028708229" y1="845.093788649151" x2="-617.1776020177623" y2="710.4753534238191"></line><line class="transition" marker-end="url(#transitionEndCircle)" x1="-461.0787123499511" y1="635.922543470255" x2="-494.21823517587165" y2="301.1773860542298"></line><line class="transition" marker-end="url(#transitionEndCircle)" x1="60.83428909440306" y1="1179.41521829495" x2="114.2036286765662" y2="896.2617812086941"></line><line class="transition" marker-end="url(#transitionEndCircle)" x1="-664.6171623295661" y1="916.3871142507683" x2="-818.8795304696282" y2="723.1457544208256"></line><line class="transition" marker-end="url(#transitionEndCircle)" x1="-617.1776020177623" y1="710.4753534238191" x2="-481.89037704755964" y2="475.7506481994022"></line><line class="transition" marker-end="url(#transitionEndCircle)" x1="-494.21823517587165" y1="301.1773860542298" x2="-657.0855533132401" y2="177.4532211302573"></line><line class="transition" marker-end="url(#transitionEndCircle)" x1="114.2036286765662" y1="896.2617812086941" x2="196.29575222861143" y2="681.6654894584015"></line><line class="transition" marker-end="url(#transitionEndRect)" x1="-818.8795304696282" y1="723.1457544208256" x2="-828.8297657855821" y2="523.7628058818428"></line><line class="transition" marker-end="url(#transitionEndCircle)" x1="-830.0773944555444" y1="498.76280588184284" x2="-649.5609478623319" y2="382.3830885520424"></line><line class="transition" marker-end="url(#transitionEndRect)" x1="-481.89037704755964" y1="475.7506481994022" x2="-602.8197026225313" y2="523.9196982479531"></line><line class="transition" marker-end="url(#transitionEndCircle)" x1="-651.8197026225313" y1="543.4375731815704" x2="-649.5609478623319" y2="382.3830885520424"></line><line class="transition" marker-end="url(#transitionEndRect)" x1="-657.0855533132401" y1="177.4532211302573" x2="-773.7786954864794" y2="242.72715629536913"></line><line class="transition" marker-end="url(#transitionEndCircle)" x1="-818.4723170208872" y1="267.7271562953691" x2="-649.5609478623319" y2="382.3830885520424"></line><line class="transition" marker-end="url(#transitionEndCircle)" x1="-649.5609478623319" y1="382.3830885520424" x2="-313.57006703783924" y2="562.7598653898633"></line><line class="transition" marker-end="url(#transitionEndCircle)" x1="-313.57006703783924" y1="562.7598653898633" x2="-4.942192408334989" y2="721.555439487997"></line></g><g><circle r="30" class="state START" transform="translate(40,250)"><title>Rule start
The entry node of a rule.</title></circle><circle r="30" class="state STOP" transform="translate(640,380)"><title>Rule stop
The exit state of a rule.</title></circle><circle r="30" class="state BASIC" transform="translate(326.4045983707099,261.8057932531647)"><title>Basic state</title></circle><circle r="30" class="state BASIC" transform="translate(302.89158399968886,540.5239299217294)"><title>Basic state</title></circle><circle r="30" class="state BASIC" transform="translate(307.6775189531979,-91.58473719822095)"><title>Basic state</title></circle><circle r="30" class="state BASIC" transform="translate(443.71789341482366,156.8583369396634)"><title>Basic state</title></circle><rect width="98px" height="50" y="-25" rx="5" ry="20" class="state RULE recursive" x="-49px" transform="translate(420,-260)"><title>Rule call
Represents a transition to a subrule.</title></rect><circle r="30" class="state BASIC" transform="translate(-6.53769132970632,-32.82458508509285)"><title>Basic state</title></circle><circle r="30" class="state BASIC" transform="translate(168.51985687165595,225.02650024919024)"><title>Basic state</title></circle><rect width="98px" height="50" y="-25" rx="5" ry="20" class="state RULE recursive" x="-49px" transform="translate(-560,0)"><title>Rule call
Represents a transition to a subrule.</title></rect><circle r="30" class="state BASIC" transform="translate(462.66310022398886,588.5132396750612)"><title>Basic state</title></circle><circle r="30" class="state BASIC" transform="translate(412.0663889915564,462.8097872132011)"><title>Basic state</title></circle><circle r="30" class="state BASIC" transform="translate(-103.24263898177091,294.0248022290937)"><title>Basic state</title></circle><circle r="30" class="state BASIC" transform="translate(-180.15656898794677,675.0779104969236)"><title>Basic state</title></circle><circle r="30" class="state BASIC" transform="translate(-213.25555621058896,979.6531726108071)"><title>Basic state</title></circle><rect width="98px" height="50" y="-25" rx="5" ry="20" class="state RULE recursive" x="-49px" transform="translate(-440,-200)"><title>Rule call
Represents a transition to a subrule.</title></rect><circle r="30" class="state BASIC" transform="translate(188.7383074446039,1058.3345038356922)"><title>Basic state</title></circle><circle r="30" class="state BASIC" transform="translate(287.1674416842238,887.4353027607731)"><title>Basic state</title></circle><circle r="30" class="state BASIC" transform="translate(191.7127267117111,364.0809058207215)"><title>Basic state</title></circle><circle r="30" class="state BASIC" transform="translate(-119.43902392776522,154.40442289038495)"><title>Basic state</title></circle><circle r="30" class="state BASIC" transform="translate(-317.7037660837645,353.69542701104257)"><title>Basic state</title></circle><rect width="98px" height="50" y="-25" rx="5" ry="20" class="state RULE recursive" x="-49px" transform="translate(700,220)"><title>Rule call
Represents a transition to a subrule.</title></rect><circle r="30" class="state BASIC" transform="translate(-168.16820558511057,475.82918188984144)"><title>Basic state</title></circle><circle r="30" class="state BASIC" transform="translate(139.17244602818508,535.8869684811662)"><title>Basic state</title></circle><circle r="30" class="state BASIC" transform="translate(109.95129150773316,-171.17113346407706)"><title>Basic state</title></circle><circle r="30" class="state BASIC" transform="translate(-63.32152832788568,-257.1799742887195)"><title>Basic state</title></circle><circle r="30" class="state BASIC" transform="translate(-239.20086032475822,-179.00927526339896)"><title>Basic state</title></circle><rect width="98px" height="50" y="-25" rx="5" ry="20" class="state RULE recursive" x="-49px" transform="translate(-331.6163153910149,-10.020223714302633)"><title>Rule call
Represents a transition to a subrule.</title></rect><circle r="30" class="state BASIC" transform="translate(-279.94751583247944,197.3465170313995)"><title>Basic state</title></circle><circle r="30" class="state BASIC" transform="translate(8.099249468708114,435.81930687069564)"><title>Basic state</title></circle><circle r="30" class="state BASIC" transform="translate(430.5110601075255,-32.11532330981555)"><title>Basic state</title></circle><circle r="30" class="state BASIC" transform="translate(302.8440437063836,81.4113731698215)"><title>Basic state</title></circle><circle r="30" class="state BASIC" transform="translate(38.566564421658,168.24266327900477)"><title>Basic state</title></circle><rect width="98px" height="50" y="-25" rx="5" ry="20" class="state RULE recursive" x="-49px" transform="translate(-52.713096241924006,557.2080906053469)"><title>Rule call
Represents a transition to a subrule.</title></rect><circle r="30" class="state BASIC" transform="translate(-103.49420211740699,843.5398506158467)"><title>Basic state</title></circle><circle r="30" class="state BASIC" transform="translate(-30.79263508562108,1028.2608826622957)"><title>Basic state</title></circle><rect width="98px" height="50" y="-25" rx="5" ry="20" class="state RULE recursive" x="-49px" transform="translate(-123.67533943752785,1186.157106588265)"><title>Rule call
Represents a transition to a subrule.</title></rect><circle r="30" class="state BASIC" transform="translate(60.83428909440306,1179.41521829495)"><title>Basic state</title></circle><circle r="30" class="state BASIC" transform="translate(114.2036286765662,896.2617812086941)"><title>Basic state</title></circle><circle r="30" class="state BSTART" transform="translate(160.35138908752072,32.60078439471594)"><title>Block start state
The start of a regular (...) block.</title></circle><circle r="30" class="state BEND" transform="translate(196.29575222861143,681.6654894584015)"><title>Block end
Terminal node of a simple (A|b|...) block.</title></circle><circle r="30" class="state BASIC" transform="translate(-426.57448095192524,1002.5984966162088)"><title>Basic state</title></circle><circle r="30" class="state BASIC" transform="translate(-664.6171623295661,916.3871142507683)"><title>Basic state</title></circle><circle r="30" class="state BASIC" transform="translate(-818.8795304696282,723.1457544208256)"><title>Basic state</title></circle><rect width="98px" height="50" y="-25" rx="5" ry="20" class="state RULE recursive" x="-49px" transform="translate(-830.0773944555444,498.76280588184284)"><title>Rule call
Represents a transition to a subrule.</title></rect><circle r="30" class="state BASIC" transform="translate(-483.0041028708229,845.093788649151)"><title>Basic state</title></circle><circle r="30" class="state BASIC" transform="translate(-617.1776020177623,710.4753534238191)"><title>Basic state</title></circle><circle r="30" class="state BASIC" transform="translate(-481.89037704755964,475.7506481994022)"><title>Basic state</title></circle><rect width="98px" height="50" y="-25" rx="5" ry="20" class="state RULE recursive" x="-49px" transform="translate(-651.8197026225313,543.4375731815704)"><title>Rule call
Represents a transition to a subrule.</title></rect><circle r="30" class="state BASIC" transform="translate(-461.0787123499511,635.922543470255)"><title>Basic state</title></circle><circle r="30" class="state BASIC" transform="translate(-494.21823517587165,301.1773860542298)"><title>Basic state</title></circle><circle r="30" class="state BASIC" transform="translate(-657.0855533132401,177.4532211302573)"><title>Basic state</title></circle><rect width="98px" height="50" y="-25" rx="5" ry="20" class="state RULE recursive" x="-49px" transform="translate(-818.4723170208872,267.7271562953691)"><title>Rule call
Represents a transition to a subrule.</title></rect><circle r="30" class="state SBSTART" transform="translate(-292.8369543664883,818.7527971106884)"><title>Star block start
Start of the actual block in a (A|b|...)* loop.</title></circle><circle r="30" class="state BEND" transform="translate(-649.5609478623319,382.3830885520424)"><title>Block end
Terminal node of a simple (A|b|...) block.</title></circle><circle r="30" class="state SLENTRY" transform="translate(-4.942192408334989,721.555439487997)"><title>Star loop entry
Entry + exit state for (A|B|...)* loops.</title></circle><circle r="30" class="state LEND" transform="translate(355.0189840074171,705.9786343480482)"><title>Loop end
Marks the end of a * or + loop.</title></circle><circle r="30" class="state SLBACK" transform="translate(-313.57006703783924,562.7598653898633)"><title>Star loop back
The loop back state from the inner block to the star loop entry state.</title></circle><circle r="30" class="state BASIC" transform="translate(580,780)"><title>Basic state</title></circle></g><g><text x="0" y="0" class="stateLabel" transform="translate(40,250)">2</text><text x="0" y="0" class="stateLabel" transform="translate(640,380)">3</text><text x="0" y="0" class="stateLabel" transform="translate(326.4045983707099,261.8057932531647)">7</text><text x="0" y="0" class="stateLabel" transform="translate(302.89158399968886,540.5239299217294)">8</text><text x="0" y="0" class="stateLabel" transform="translate(307.6775189531979,-91.58473719822095)">9</text><text x="0" y="0" class="stateLabel" transform="translate(443.71789341482366,156.8583369396634)">10</text><text x="0" y="0" class="stateLabel" transform="translate(420,-260)">expression</text><text x="0" y="0" class="stateLabel" transform="translate(-6.53769132970632,-32.82458508509285)">11</text><text x="0" y="0" class="stateLabel" transform="translate(168.51985687165595,225.02650024919024)">12</text><text x="0" y="0" class="stateLabel" transform="translate(-560,0)">expression</text><text x="0" y="0" class="stateLabel" transform="translate(462.66310022398886,588.5132396750612)">13</text><text x="0" y="0" class="stateLabel" transform="translate(412.0663889915564,462.8097872132011)">14</text><text x="0" y="0" class="stateLabel" transform="translate(-103.24263898177091,294.0248022290937)">15</text><text x="0" y="0" class="stateLabel" transform="translate(-180.15656898794677,675.0779104969236)">16</text><text x="0" y="0" class="stateLabel" transform="translate(-213.25555621058896,979.6531726108071)">17</text><text x="0" y="0" class="stateLabel" transform="translate(-440,-200)">expression</text><text x="0" y="0" class="stateLabel" transform="translate(188.7383074446039,1058.3345038356922)">18</text><text x="0" y="0" class="stateLabel" transform="translate(287.1674416842238,887.4353027607731)">19</text><text x="0" y="0" class="stateLabel" transform="translate(191.7127267117111,364.0809058207215)">20</text><text x="0" y="0" class="stateLabel" transform="translate(-119.43902392776522,154.40442289038495)">21</text><text x="0" y="0" class="stateLabel" transform="translate(-317.7037660837645,353.69542701104257)">22</text><text x="0" y="0" class="stateLabel" transform="translate(700,220)">expression</text><text x="0" y="0" class="stateLabel" transform="translate(-168.16820558511057,475.82918188984144)">23</text><text x="0" y="0" class="stateLabel" transform="translate(139.17244602818508,535.8869684811662)">24</text><text x="0" y="0" class="stateLabel" transform="translate(109.95129150773316,-171.17113346407706)">25</text><text x="0" y="0" class="stateLabel" transform="translate(-63.32152832788568,-257.1799742887195)">26</text><text x="0" y="0" class="stateLabel" transform="translate(-239.20086032475822,-179.00927526339896)">27</text><text x="0" y="0" class="stateLabel" transform="translate(-331.6163153910149,-10.020223714302633)">expression</text><text x="0" y="0" class="stateLabel" transform="translate(-279.94751583247944,197.3465170313995)">28</text><text x="0" y="0" class="stateLabel" transform="translate(8.099249468708114,435.81930687069564)">29</text><text x="0" y="0" class="stateLabel" transform="translate(430.5110601075255,-32.11532330981555)">30</text><text x="0" y="0" class="stateLabel" transform="translate(302.8440437063836,81.4113731698215)">31</text><text x="0" y="0" class="stateLabel" transform="translate(38.566564421658,168.24266327900477)">32</text><text x="0" y="0" class="stateLabel" transform="translate(-52.713096241924006,557.2080906053469)">expression</text><text x="0" y="0" class="stateLabel" transform="translate(-103.49420211740699,843.5398506158467)">33</text><text x="0" y="0" class="stateLabel" transform="translate(-30.79263508562108,1028.2608826622957)">34</text><text x="0" y="0" class="stateLabel" transform="translate(-123.67533943752785,1186.157106588265)">expression</text><text x="0" y="0" class="stateLabel" transform="translate(60.83428909440306,1179.41521829495)">35</text><text x="0" y="0" class="stateLabel" transform="translate(114.2036286765662,896.2617812086941)">36</text><text x="0" y="0" class="stateLabel" transform="translate(160.35138908752072,32.60078439471594)">37</text><text x="0" y="0" class="stateLabel" transform="translate(196.29575222861143,681.6654894584015)">38</text><text x="0" y="0" class="stateLabel" transform="translate(-426.57448095192524,1002.5984966162088)">39</text><text x="0" y="0" class="stateLabel" transform="translate(-664.6171623295661,916.3871142507683)">40</text><text x="0" y="0" class="stateLabel" transform="translate(-818.8795304696282,723.1457544208256)">41</text><text x="0" y="0" class="stateLabel" transform="translate(-830.0773944555444,498.76280588184284)">expression</text><text x="0" y="0" class="stateLabel" transform="translate(-483.0041028708229,845.093788649151)">42</text><text x="0" y="0" class="stateLabel" transform="translate(-617.1776020177623,710.4753534238191)">43</text><text x="0" y="0" class="stateLabel" transform="translate(-481.89037704755964,475.7506481994022)">44</text><text x="0" y="0" class="stateLabel" transform="translate(-651.8197026225313,543.4375731815704)">expression</text><text x="0" y="0" class="stateLabel" transform="translate(-461.0787123499511,635.922543470255)">45</text><text x="0" y="0" class="stateLabel" transform="translate(-494.21823517587165,301.1773860542298)">46</text><text x="0" y="0" class="stateLabel" transform="translate(-657.0855533132401,177.4532211302573)">47</text><text x="0" y="0" class="stateLabel" transform="translate(-818.4723170208872,267.7271562953691)">expression</text><text x="0" y="0" class="stateLabel" transform="translate(-292.8369543664883,818.7527971106884)">48</text><text x="0" y="0" class="stateLabel" transform="translate(-649.5609478623319,382.3830885520424)">49</text><text x="0" y="0" class="stateLabel" transform="translate(-4.942192408334989,721.555439487997)">50</text><text x="0" y="0" class="stateLabel" transform="translate(355.0189840074171,705.9786343480482)">51</text><text x="0" y="0" class="stateLabel" transform="translate(-313.57006703783924,562.7598653898633)">52</text><text x="0" y="0" class="stateLabel" transform="translate(580,780)">53</text></g><g><text x="0" y="13" class="stateTypeLabel" transform="translate(40,250)">START</text><text x="0" y="13" class="stateTypeLabel" transform="translate(640,380)">STOP</text><text x="0" y="13" class="stateTypeLabel" transform="translate(326.4045983707099,261.8057932531647)">BASIC</text><text x="0" y="13" class="stateTypeLabel" transform="translate(302.89158399968886,540.5239299217294)">BASIC</text><text x="0" y="13" class="stateTypeLabel" transform="translate(307.6775189531979,-91.58473719822095)">BASIC</text><text x="0" y="13" class="stateTypeLabel" transform="translate(443.71789341482366,156.8583369396634)">BASIC</text><text x="0" y="13" class="stateTypeLabel" transform="translate(420,-260)">RULE</text><text x="0" y="13" class="stateTypeLabel" transform="translate(-6.53769132970632,-32.82458508509285)">BASIC</text><text x="0" y="13" class="stateTypeLabel" transform="translate(168.51985687165595,225.02650024919024)">BASIC</text><text x="0" y="13" class="stateTypeLabel" transform="translate(-560,0)">RULE</text><text x="0" y="13" class="stateTypeLabel" transform="translate(462.66310022398886,588.5132396750612)">BASIC</text><text x="0" y="13" class="stateTypeLabel" transform="translate(412.0663889915564,462.8097872132011)">BASIC</text><text x="0" y="13" class="stateTypeLabel" transform="translate(-103.24263898177091,294.0248022290937)">BASIC</text><text x="0" y="13" class="stateTypeLabel" transform="translate(-180.15656898794677,675.0779104969236)">BASIC</text><text x="0" y="13" class="stateTypeLabel" transform="translate(-213.25555621058896,979.6531726108071)">BASIC</text><text x="0" y="13" class="stateTypeLabel" transform="translate(-440,-200)">RULE</text><text x="0" y="13" class="stateTypeLabel" transform="translate(188.7383074446039,1058.3345038356922)">BASIC</text><text x="0" y="13" class="stateTypeLabel" transform="translate(287.1674416842238,887.4353027607731)">BASIC</text><text x="0" y="13" class="stateTypeLabel" transform="translate(191.7127267117111,364.0809058207215)">BASIC</text><text x="0" y="13" class="stateTypeLabel" transform="translate(-119.43902392776522,154.40442289038495)">BASIC</text><text x="0" y="13" class="stateTypeLabel" transform="translate(-317.7037660837645,353.69542701104257)">BASIC</text><text x="0" y="13" class="stateTypeLabel" transform="translate(700,220)">RULE</text><text x="0" y="13" class="stateTypeLabel" transform="translate(-168.16820558511057,475.82918188984144)">BASIC</text><text x="0" y="13" class="stateTypeLabel" transform="translate(139.17244602818508,535.8869684811662)">BASIC</text><text x="0" y="13" class="stateTypeLabel" transform="translate(109.95129150773316,-171.17113346407706)">BASIC</text><text x="0" y="13" class="stateTypeLabel" transform="translate(-63.32152832788568,-257.1799742887195)">BASIC</text><text x="0" y="13" class="stateTypeLabel" transform="translate(-239.20086032475822,-179.00927526339896)">BASIC</text><text x="0" y="13" class="stateTypeLabel" transform="translate(-331.6163153910149,-10.020223714302633)">RULE</text><text x="0" y="13" class="stateTypeLabel" transform="translate(-279.94751583247944,197.3465170313995)">BASIC</text><text x="0" y="13" class="stateTypeLabel" transform="translate(8.099249468708114,435.81930687069564)">BASIC</text><text x="0" y="13" class="stateTypeLabel" transform="translate(430.5110601075255,-32.11532330981555)">BASIC</text><text x="0" y="13" class="stateTypeLabel" transform="translate(302.8440437063836,81.4113731698215)">BASIC</text><text x="0" y="13" class="stateTypeLabel" transform="translate(38.566564421658,168.24266327900477)">BASIC</text><text x="0" y="13" class="stateTypeLabel" transform="translate(-52.713096241924006,557.2080906053469)">RULE</text><text x="0" y="13" class="stateTypeLabel" transform="translate(-103.49420211740699,843.5398506158467)">BASIC</text><text x="0" y="13" class="stateTypeLabel" transform="translate(-30.79263508562108,1028.2608826622957)">BASIC</text><text x="0" y="13" class="stateTypeLabel" transform="translate(-123.67533943752785,1186.157106588265)">RULE</text><text x="0" y="13" class="stateTypeLabel" transform="translate(60.83428909440306,1179.41521829495)">BASIC</text><text x="0" y="13" class="stateTypeLabel" transform="translate(114.2036286765662,896.2617812086941)">BASIC</text><text x="0" y="13" class="stateTypeLabel" transform="translate(160.35138908752072,32.60078439471594)">BSTART</text><text x="0" y="13" class="stateTypeLabel" transform="translate(196.29575222861143,681.6654894584015)">BEND</text><text x="0" y="13" class="stateTypeLabel" transform="translate(-426.57448095192524,1002.5984966162088)">BASIC</text><text x="0" y="13" class="stateTypeLabel" transform="translate(-664.6171623295661,916.3871142507683)">BASIC</text><text x="0" y="13" class="stateTypeLabel" transform="translate(-818.8795304696282,723.1457544208256)">BASIC</text><text x="0" y="13" class="stateTypeLabel" transform="translate(-830.0773944555444,498.76280588184284)">RULE</text><text x="0" y="13" class="stateTypeLabel" transform="translate(-483.0041028708229,845.093788649151)">BASIC</text><text x="0" y="13" class="stateTypeLabel" transform="translate(-617.1776020177623,710.4753534238191)">BASIC</text><text x="0" y="13" class="stateTypeLabel" transform="translate(-481.89037704755964,475.7506481994022)">BASIC</text><text x="0" y="13" class="stateTypeLabel" transform="translate(-651.8197026225313,543.4375731815704)">RULE</text><text x="0" y="13" class="stateTypeLabel" transform="translate(-461.0787123499511,635.922543470255)">BASIC</text><text x="0" y="13" class="stateTypeLabel" transform="translate(-494.21823517587165,301.1773860542298)">BASIC</text><text x="0" y="13" class="stateTypeLabel" transform="translate(-657.0855533132401,177.4532211302573)">BASIC</text><text x="0" y="13" class="stateTypeLabel" transform="translate(-818.4723170208872,267.7271562953691)">RULE</text><text x="0" y="13" class="stateTypeLabel" transform="translate(-292.8369543664883,818.7527971106884)">SBSTART</text><text x="0" y="13" class="stateTypeLabel" transform="translate(-649.5609478623319,382.3830885520424)">BEND</text><text x="0" y="13" class="stateTypeLabel" transform="translate(-4.942192408334989,721.555439487997)">SLENTRY</text><text x="0" y="13" class="stateTypeLabel" transform="translate(355.0189840074171,705.9786343480482)">LEND</text><text x="0" y="13" class="stateTypeLabel" transform="translate(-313.57006703783924,562.7598653898633)">SLBACK</text><text x="0" y="13" class="stateTypeLabel" transform="translate(580,780)">BASIC</text></g><g><text x="0" y="0" class="linkLabel" transform="translate(100.17569454376036,141.30039219735798) rotate(-61.03125107489112) translate(0, 0)"><tspan x="0" y="1.1em" dy="0em">ε</tspan></text><text x="0" y="0" class="linkLabel" transform="translate(243.3779937291153,147.20328882394034) rotate(54.07762441768827) translate(0, 0)"><tspan x="0" y="1.1em" dy="0em">ε</tspan></text><text x="0" y="0" class="linkLabel" transform="translate(234.0144540203593,-29.491976401752506) rotate(-40.128522924360034) translate(0, 0)"><tspan x="0" y="1.1em" dy="0em">ε</tspan></text><text x="0" y="0" class="linkLabel" transform="translate(76.9068488789072,-0.11190034518845593) rotate(21.40662270450062) translate(10, 0)"><tspan x="0" y="1.1em" dy="0em">ε</tspan></text><text x="0" y="0" class="linkLabel" transform="translate(28.554375052874903,163.31279331190484) rotate(315.2368141836837) translate(10, 0)"><tspan x="0" y="1.1em" dy="0em">ε</tspan></text><text x="0" y="0" class="linkLabel" transform="translate(176.0320578996159,198.34084510771874) rotate(0) translate(10, -10)"><tspan x="0" y="1.1em" dy="0em">ε</tspan></text><text x="0" y="0" class="linkLabel" transform="translate(135.15134029762694,-69.28517453468056) rotate(0) translate(10, -10)"><tspan x="0" y="1.1em" dy="0em">ε</tspan></text><text x="0" y="0" class="linkLabel" transform="translate(295.4312245975231,0.2427305424501931) rotate(-13.471223250686924) translate(0, 0)"><tspan x="0" y="1.1em" dy="0em">ε</tspan></text><text x="0" y="0" class="linkLabel" transform="translate(314.6480911851994,401.16486158744704) rotate(0) translate(10, -10)"><tspan x="0" y="1.1em" dy="0em">ε</tspan></text><text x="0" y="0" class="linkLabel" transform="translate(375.69770618401077,32.63679987072122) rotate(61.296138366690464) translate(0, 0)"><tspan x="0" y="1.1em" dy="0em">'-'</tspan></text><text x="0" y="0" class="linkLabel" transform="translate(80.99108277097481,96.1009575820487) rotate(55.82704502974792) translate(0, 0)"><tspan x="0" y="1.1em" dy="0em">'('</tspan></text><text x="0" y="0" class="linkLabel" transform="translate(-141.69960398485884,484.5513563630086) rotate(0) translate(10, -10)"><tspan x="0" y="1.1em" dy="0em">'sin'</tspan></text><text x="0" y="0" class="linkLabel" transform="translate(36.13685139197294,259.24266435555325) rotate(33.97493069085152) translate(10, 0)"><tspan x="0" y="1.1em" dy="0em">'cos'</tspan></text><text x="0" y="0" class="linkLabel" transform="translate(23.31488158992374,-214.17555387639828) rotate(26.398797162399404) translate(10, 0)"><tspan x="0" y="1.1em" dy="0em">'tan'</tspan></text><text x="0" y="0" class="linkLabel" transform="translate(366.6775519069546,24.648024930002975) rotate(318.35520499449945) translate(10, 0)"><tspan x="0" y="1.1em" dy="0em">'log'</tspan></text><text x="0" y="0" class="linkLabel" transform="translate(249.59366811415015,611.0947096900654) rotate(307.06158275076933) translate(10, 0)"><tspan x="0" y="1.1em" dy="0em">INTEGER</tspan><tspan x="0" y="1.1em" dy="1em">FLOAT</tspan></text><text x="0" y="0" class="linkLabel" transform="translate(317.7153100632674,260.46962138019245) rotate(320.56971265159507) translate(10, 0)"><tspan x="0" y="1.1em" dy="0em">ε</tspan></text><text x="0" y="0" class="linkLabel" transform="translate(194.00423947016128,522.8731976395615) rotate(0) translate(10, -10)"><tspan x="0" y="1.1em" dy="0em">ε</tspan></text><text x="0" y="0" class="linkLabel" transform="translate(153.8461514499205,380.4567343651782) rotate(0) translate(10, -10)"><tspan x="0" y="1.1em" dy="0em">ε</tspan></text><text x="0" y="0" class="linkLabel" transform="translate(300.91777312608696,562.2001040781137) rotate(9.240073906748384) translate(0, 0)"><tspan x="0" y="1.1em" dy="0em">ε</tspan></text><text x="0" y="0" class="linkLabel" transform="translate(-196.70606259926785,827.3655415538653) rotate(0) translate(10, -10)"><tspan x="0" y="1.1em" dy="0em">'('</tspan></text><text x="0" y="0" class="linkLabel" transform="translate(-218.57139500576486,254.04992495071377) rotate(314.8520953370945) translate(10, 0)"><tspan x="0" y="1.1em" dy="0em">'('</tspan></text><text x="0" y="0" class="linkLabel" transform="translate(-151.26119432632194,-218.09462477605922) rotate(336.03693784780853) translate(10, 0)"><tspan x="0" y="1.1em" dy="0em">'('</tspan></text><text x="0" y="0" class="linkLabel" transform="translate(170.70530406402082,124.82701822441314) rotate(341.81149022058423) translate(10, 0)"><tspan x="0" y="1.1em" dy="0em">'('</tspan></text><text x="0" y="0" class="linkLabel" transform="translate(95.67677991013822,701.6104644731993) rotate(348.7880102544291) translate(10, 0)"><tspan x="0" y="1.1em" dy="0em">ε</tspan></text><text x="0" y="0" class="linkLabel" transform="translate(437.36474460777265,525.6615134441312) rotate(68.07479443523313) translate(10, 0)"><tspan x="0" y="1.1em" dy="0em">')'</tspan></text><text x="0" y="0" class="linkLabel" transform="translate(-122.02409564810502,1003.9570276365514) rotate(14.917030881531138) translate(0, 0)"><tspan x="0" y="1.1em" dy="0em">ε</tspan></text><text x="0" y="0" class="linkLabel" transform="translate(78.97283617949141,1043.297693248994) rotate(7.80041571399956) translate(0, 0)"><tspan x="0" y="1.1em" dy="0em">ε</tspan></text><text x="0" y="0" class="linkLabel" transform="translate(-399.79707156566207,414.7230376052224) rotate(323.3731358690021) translate(10, 0)"><tspan x="0" y="1.1em" dy="0em">ε</tspan></text><text x="0" y="0" class="linkLabel" transform="translate(-325.0292913163351,475.7899150446218) rotate(0.014342782649984153) translate(0, 0)"><tspan x="0" y="1.1em" dy="0em">ε</tspan></text><text x="0" y="0" class="linkLabel" transform="translate(-285.4085878578866,-94.5147494888508) rotate(298.6730336094387) translate(10, 0)"><tspan x="0" y="1.1em" dy="0em">ε</tspan></text><text x="0" y="0" class="linkLabel" transform="translate(-305.7819156117472,93.66314665854843) rotate(0) translate(10, -10)"><tspan x="0" y="1.1em" dy="0em">ε</tspan></text><text x="0" y="0" class="linkLabel" transform="translate(-7.073265910133003,362.72537694217584) rotate(0) translate(10, -10)"><tspan x="0" y="1.1em" dy="0em">ε</tspan></text><text x="0" y="0" class="linkLabel" transform="translate(-78.1036491796655,700.3739706105969) rotate(0) translate(10, -10)"><tspan x="0" y="1.1em" dy="0em">ε</tspan></text><text x="0" y="0" class="linkLabel" transform="translate(-148.88957338741164,770.1541182993427) rotate(341.3445877447292) translate(10, 0)"><tspan x="0" y="1.1em" dy="0em">ε</tspan></text><text x="0" y="0" class="linkLabel" transform="translate(175.03839579954104,713.7670369180225) rotate(-2.477847019440651) translate(0, 0)"><tspan x="0" y="1.1em" dy="0em">ε</tspan></text><text x="0" y="0" class="linkLabel" transform="translate(304.1810706100839,572.2376383358013) rotate(314.593309822239) translate(10, 0)"><tspan x="0" y="1.1em" dy="0em">ε</tspan></text><text x="0" y="0" class="linkLabel" transform="translate(237.95287456441383,972.8849032982326) rotate(-60.060274231572706) translate(0, 0)"><tspan x="0" y="1.1em" dy="0em">')'</tspan></text><text x="0" y="0" class="linkLabel" transform="translate(-14.497879778462746,505.8580751855038) rotate(11.056900818439818) translate(0, 0)"><tspan x="0" y="1.1em" dy="0em">')'</tspan></text><text x="0" y="0" class="linkLabel" transform="translate(-135.92413318188565,316.58291195104755) rotate(39.62122425159288) translate(0, 0)"><tspan x="0" y="1.1em" dy="0em">')'</tspan></text><text x="0" y="0" class="linkLabel" transform="translate(-67.14341860151403,935.9003666390712) rotate(68.51664490293045) translate(0, 0)"><tspan x="0" y="1.1em" dy="0em">','</tspan></text><text x="0" y="0" class="linkLabel" transform="translate(-359.7057176592068,910.6756468634486) rotate(306.033806626597) translate(10, 0)"><tspan x="0" y="1.1em" dy="0em">ε</tspan></text><text x="0" y="0" class="linkLabel" transform="translate(-387.9205286186556,831.9232928799197) rotate(352.1138584674661) translate(10, 0)"><tspan x="0" y="1.1em" dy="0em">ε</tspan></text><text x="0" y="0" class="linkLabel" transform="translate(-376.9578333582197,727.3376702904718) rotate(47.379507893180374) translate(10, 0)"><tspan x="0" y="1.1em" dy="0em">ε</tspan></text><text x="0" y="0" class="linkLabel" transform="translate(497.50949200370854,542.9893171740241) rotate(-48.839000235267704) translate(0, 0)"><tspan x="0" y="1.1em" dy="0em">ε</tspan></text><text x="0" y="0" class="linkLabel" transform="translate(241.7315969564176,784.5503961095873) rotate(66.1728754144669) translate(10, 0)"><tspan x="0" y="1.1em" dy="0em">ε</tspan></text><text x="0" y="0" class="linkLabel" transform="translate(167.73409912839827,608.7762289697838) rotate(68.60227304526302) translate(0, 0)"><tspan x="0" y="1.1em" dy="0em">ε</tspan></text><text x="0" y="0" class="linkLabel" transform="translate(102.19750084865977,558.7423981645486) rotate(52.56576024772517) translate(0, 0)"><tspan x="0" y="1.1em" dy="0em">ε</tspan></text><text x="0" y="0" class="linkLabel" transform="translate(-77.23398726157447,1107.2089946252804) rotate(300.4662384626209) translate(10, 0)"><tspan x="0" y="1.1em" dy="0em">ε</tspan></text><text x="0" y="0" class="linkLabel" transform="translate(-31.420525171562396,1182.7861624416073) rotate(-2.0926277566685885) translate(0, 0)"><tspan x="0" y="1.1em" dy="0em">ε</tspan></text><text x="0" y="0" class="linkLabel" transform="translate(-545.5958216407457,959.4928054334885) rotate(19.908753335910603) translate(10, 0)"><tspan x="0" y="1.1em" dy="0em">ε</tspan></text><text x="0" y="0" class="linkLabel" transform="translate(-550.0908524442926,777.784571036485) rotate(45.094842638118365) translate(10, 0)"><tspan x="0" y="1.1em" dy="0em">ε</tspan></text><text x="0" y="0" class="linkLabel" transform="translate(-477.6484737629114,468.54996476224244) rotate(0) translate(10, -10)"><tspan x="0" y="1.1em" dy="0em">ε</tspan></text><text x="0" y="0" class="linkLabel" transform="translate(87.51895888548464,1037.838499751822) rotate(0) translate(10, -10)"><tspan x="0" y="1.1em" dy="0em">')'</tspan></text><text x="0" y="0" class="linkLabel" transform="translate(-741.7483463995972,819.7664343357969) rotate(51.400033092599415) translate(10, 0)"><tspan x="0" y="1.1em" dy="0em">'^'</tspan></text><text x="0" y="0" class="linkLabel" transform="translate(-549.5339895326609,593.1130008116106) rotate(-60.042334855703274) translate(0, 0)"><tspan x="0" y="1.1em" dy="0em">'*'</tspan><tspan x="0" y="1.1em" dy="1em">'/'</tspan></text><text x="0" y="0" class="linkLabel" transform="translate(-575.6518942445559,239.31530359224357) rotate(37.222568055708194) translate(10, 0)"><tspan x="0" y="1.1em" dy="0em">'+'</tspan><tspan x="0" y="1.1em" dy="1em">'-'</tspan></text><text x="0" y="0" class="linkLabel" transform="translate(155.24969045258882,788.9636353335477) rotate(-69.06604147001697) translate(0, 0)"><tspan x="0" y="1.1em" dy="0em">ε</tspan></text><text x="0" y="0" class="linkLabel" transform="translate(-824.4784624625863,610.9542801513342) rotate(0) translate(10, -10)"><tspan x="0" y="1.1em" dy="0em">ε</tspan></text><text x="0" y="0" class="linkLabel" transform="translate(-739.8191711589382,440.5729472169426) rotate(-32.81004703832312) translate(0, 0)"><tspan x="0" y="1.1em" dy="0em">ε</tspan></text><text x="0" y="0" class="linkLabel" transform="translate(-566.8550398350454,509.59411069048633) rotate(338.28142192518806) translate(10, 0)"><tspan x="0" y="1.1em" dy="0em">ε</tspan></text><text x="0" y="0" class="linkLabel" transform="translate(-650.6903252424315,462.9103308668064) rotate(0) translate(10, -10)"><tspan x="0" y="1.1em" dy="0em">ε</tspan></text><text x="0" y="0" class="linkLabel" transform="translate(-737.7789351670637,222.59018871281322) rotate(330.7789246804439) translate(10, 0)"><tspan x="0" y="1.1em" dy="0em">ε</tspan></text><text x="0" y="0" class="linkLabel" transform="translate(-734.0166324416095,325.05512242370577) rotate(34.16840413489773) translate(0, 0)"><tspan x="0" y="1.1em" dy="0em">ε</tspan></text><text x="0" y="0" class="linkLabel" transform="translate(-481.56550745008553,472.57147697095286) rotate(28.229136910604275) translate(0, 0)"><tspan x="0" y="1.1em" dy="0em">ε</tspan></text><text x="0" y="0" class="linkLabel" transform="translate(-159.2561297230871,642.1576524389302) rotate(27.22677920504036) translate(0, 0)"><tspan x="0" y="1.1em" dy="0em">ε</tspan></text></g></g></svg>