<?xml version="1.0" standalone="no"?>
<?xml-stylesheet href="/css/light.css" type="text/css"?>
<!DOCTYPE svg PUBLIC "-//W3C//DTD SVG 1.1//EN" "http://www.w3.org/Graphics/SVG/1.1/DTD/svg11.dtd">
<svg xmlns="http://www.w3.org/2000/svg" version="1.1" preserveAspectRatio="xMinYMin meet" viewBox="0 0 1000 750">
  <defs>
    <filter id="white-glow" x="-150%" y="-150%" width="300%" height="300%">
      <feFlood result="flood" flood-color="#ffffff" flood-opacity="0.15"></feFlood>
      <feComposite in="flood" result="mask" in2="SourceGraphic" operator="in"></feComposite>
      <feMorphology in="mask" result="dilated" operator="dilate" radius="5"></feMorphology>
      <feGaussianBlur in="dilated" result="blurred" stdDeviation="5"></feGaussianBlur>
      <feMerge>
        <feMergeNode in="blurred"></feMergeNode>
        <feMergeNode in="SourceGraphic"></feMergeNode>
      </feMerge>
    </filter>

    <filter id="black-glow" x="-1000%" y="-1000%" width="2000%" height="2000%">
      <feFlood result="flood" flood-color="#000000" flood-opacity="0.15"></feFlood>
      <feComposite in="flood" result="mask" in2="SourceGraphic" operator="in"></feComposite>
      <feMorphology in="mask" result="dilated" operator="dilate" radius="4"></feMorphology>
      <feGaussianBlur in="dilated" result="blurred" stdDeviation="5"></feGaussianBlur>
      <feMerge>
        <feMergeNode in="blurred"></feMergeNode>
        <feMergeNode in="SourceGraphic"></feMergeNode>
      </feMerge>
    </filter>

    <marker id="transitionEndCircle" viewBox="0 -5 10 10" refX="31" refY="0" markerWidth="7" markerHeight="7" orient="auto" class="marker">
      <path d="M0,-4L10,0L0,4"></path>
    </marker>
    <marker id="transitionEndRect" viewBox="0 -5 10 10" refX="10" refY="0" markerWidth="7" markerHeight="7" orient="auto" class="marker">
      <path d="M0,-4L10,0L0,4"></path>
    </marker>
  </defs>

<g transform="translate(-57.00258243044095,189.32322534113746) scale(1.7023260523368555)"><g><line class="transition" marker-end="url(#transitionEndCircle)" x1="140" y1="160" x2="280" y2="160"></line><line class="transition" marker-end="url(#transitionEndCircle)" x1="280" y1="160" x2="400" y2="160"></line><line class="transition" marker-end="url(#transitionEndCircle)" x1="400" y1="160" x2="540" y2="160"></line></g><g><circle r="30" class="state START" transform="translate(140,160)"><title>Rule start
The entry node of a rule.</title></circle><circle r="30" class="state STOP" transform="translate(540,160)"><title>Rule stop
The exit state of a rule.</title></circle><circle r="30" class="state BASIC" transform="translate(280,160)"><title>Basic state</title></circle><circle r="30" class="state BASIC" transform="translate(400,160)"><title>Basic state</title></circle></g><g><text x="0" y="0" class="stateLabel" transform="translate(140,160)">3</text><text x="0" y="0" class="stateLabel" transform="translate(540,160)">4</text><text x="0" y="0" class="stateLabel" transform="translate(280,160)">33</text><text x="0" y="0" class="stateLabel" transform="translate(400,160)">34</text></g><g><text x="0" y="13" class="stateTypeLabel" transform="translate(140,160)">START</text><text x="0" y="13" class="stateTypeLabel" transform="translate(540,160)">STOP</text><text x="0" y="13" class="stateTypeLabel" transform="translate(280,160)">BASIC</text><text x="0" y="13" class="stateTypeLabel" transform="translate(400,160)">BASIC</text></g><g><text x="0" y="0" class="linkLabel" transform="translate(210,160) rotate(0) translate(0, 0)"><tspan x="0" y="1.1em" dy="0em">ε</tspan></text><text x="0" y="0" class="linkLabel" transform="translate(340,160) rotate(0) translate(0, 0)"><tspan x="0" y="1.1em" dy="0em">'+'</tspan></text><text x="0" y="0" class="linkLabel" transform="translate(470,160) rotate(0) translate(0, 0)"><tspan x="0" y="1.1em" dy="0em">ε</tspan></text></g></g></svg>